<?xml version="1.0" standalone="no"?>
<!DOCTYPE svg PUBLIC "-//W3C//DTD SVG 20010904//EN"
 "http://www.w3.org/TR/2001/REC-SVG-20010904/DTD/svg10.dtd">
<svg version="1.0" xmlns="http://www.w3.org/2000/svg"
 width="512.000000pt" height="512.000000pt" viewBox="0 0 512.000000 512.000000"
 preserveAspectRatio="xMidYMid meet">
<metadata>
Created by potrace 1.14, written by Peter Selinger 2001-2017
</metadata>
<g transform="translate(0.000000,512.000000) scale(0.100000,-0.100000)"
fill="#000000" stroke="none">
<path d="M1709 5106 c-60 -21 -109 -56 -141 -100 -53 -73 -61 -102 -66 -241
l-4 -130 -77 -23 c-316 -97 -597 -334 -751 -634 -93 -179 -135 -346 -146 -576
-7 -140 -30 -258 -67 -342 -14 -31 -69 -121 -122 -200 -161 -238 -256 -458
-307 -712 -20 -98 -23 -143 -23 -338 0 -196 3 -240 23 -340 44 -214 139 -455
249 -627 266 -420 699 -715 1189 -814 212 -42 552 -36 748 14 42 11 61 10 159
-12 99 -21 138 -24 342 -25 203 -1 243 2 345 22 749 152 1308 719 1445 1467
14 77 32 165 41 195 29 101 90 202 185 306 206 227 289 371 357 624 23 86 26
113 26 290 1 157 -3 210 -18 275 -94 401 -327 709 -669 881 -95 48 -250 104
-289 104 -23 0 -62 -27 -69 -49 -3 -7 -27 -7 -75 0 -60 9 -73 15 -82 35 -6 12
-23 31 -38 40 -23 16 -37 16 -147 6 -254 -24 -485 -115 -679 -268 l-56 -44
-47 87 c-133 250 -343 452 -589 569 -50 23 -125 53 -168 66 l-76 23 -4 135
c-3 123 -6 140 -30 186 -34 64 -104 128 -165 148 -56 19 -154 20 -204 2z m326
-926 c238 -76 424 -240 526 -465 44 -99 59 -170 69 -345 18 -317 82 -505 252
-743 119 -168 194 -324 236 -497 150 -614 -161 -1278 -723 -1541 -201 -94
-400 -134 -630 -126 -82 3 -184 12 -225 21 -517 112 -918 499 -1046 1008 -35
139 -44 376 -20 526 17 109 14 128 -24 155 -20 14 -20 14 4 83 21 65 25 69 57
75 50 8 54 12 100 100 23 45 70 121 105 169 184 261 247 437 264 746 7 109 17
200 30 250 54 209 202 402 393 508 70 39 118 58 222 87 98 27 309 21 410 -11z"/>
<path d="M1129 3141 c-31 -31 -31 -32 -27 -122 3 -81 6 -93 27 -110 32 -26 82
-25 109 4 19 20 22 35 22 114 0 103 -12 129 -67 139 -27 5 -37 1 -64 -25z"/>
<path d="M2403 3160 c-43 -17 -55 -52 -52 -146 4 -76 7 -88 28 -105 32 -26 77
-24 106 6 23 22 25 32 25 109 0 100 -4 112 -41 131 -32 17 -35 17 -66 5z"/>
<path d="M1592 3030 c-34 -32 -38 -65 -12 -104 47 -68 128 -105 231 -106 54 0
77 6 127 31 106 53 141 121 87 174 -35 36 -74 32 -125 -10 -34 -29 -50 -35
-87 -35 -48 0 -72 10 -116 46 -35 29 -76 31 -105 4z"/>
<path d="M1675 2326 c-243 -47 -442 -206 -549 -438 -57 -123 -70 -186 -70
-343 -1 -167 18 -247 92 -389 37 -73 64 -109 137 -181 103 -103 168 -145 292
-187 356 -123 751 58 914 418 91 200 92 470 5 669 -62 140 -191 286 -317 360
-148 87 -344 122 -504 91z"/>
</g>
</svg>
